<?xml version="1.0" encoding="UTF-8" standalone="no"?>
<!-- Created with Inkscape (http://www.inkscape.org/) -->

<svg
   width="130mm"
   height="130mm"
   viewBox="0 0 491.33841 491.33915"
   version="1.1"
   id="svg5"
   sodipodi:docname="LOGO.svg"
   inkscape:version="1.2.2 (732a01da63, 2022-12-09)"
   inkscape:export-filename="LOGO2.png"
   inkscape:export-xdpi="130.01736"
   inkscape:export-ydpi="130.01736"
   xmlns:inkscape="http://www.inkscape.org/namespaces/inkscape"
   xmlns:sodipodi="http://sodipodi.sourceforge.net/DTD/sodipodi-0.dtd"
   xmlns="http://www.w3.org/2000/svg"
   xmlns:svg="http://www.w3.org/2000/svg">
  <sodipodi:namedview
     id="namedview7"
     pagecolor="#ffffff"
     bordercolor="#000000"
     borderopacity="0.25"
     inkscape:showpageshadow="2"
     inkscape:pageopacity="0.0"
     inkscape:pagecheckerboard="0"
     inkscape:deskcolor="#d1d1d1"
     inkscape:document-units="mm"
     showgrid="false"
     inkscape:zoom="1.0544998"
     inkscape:cx="181.60269"
     inkscape:cy="356.09301"
     inkscape:window-width="1278"
     inkscape:window-height="1008"
     inkscape:window-x="1266"
     inkscape:window-y="0"
     inkscape:window-maximized="0"
     inkscape:current-layer="layer1" />
  <defs
     id="defs2" />
  <g
     inkscape:label="Camada 1"
     inkscape:groupmode="layer"
     id="layer1">
    <rect
       style="fill:#f2f2f2;stroke-width:1.99723;stroke-linecap:round;stroke-miterlimit:1;stroke-dashoffset:601.534"
       id="rect172"
       width="489.33157"
       height="489.33157"
       x="0.064832613"
       y="1.5014123" />
    <path
       d="M 129.758,297.22065 H 81.18872 V 145.19881 h 13.502252 v 140.0738 H 129.758 Z"
       style="font-size:192px;font-family:'Agency FB';-inkscape-font-specification:'Agency FB';text-align:center;text-anchor:middle;fill:#ff7f2a;stroke-width:5.13014;stroke-linecap:round;stroke-miterlimit:1;stroke-dasharray:491.067, 717.714;stroke-dashoffset:623.278"
       id="path2247" />
    <path
       d="m 200.76628,297.22065 h -12.72515 v -2.62274 q -7.77109,1.06852 -15.44503,2.0399 -9.3253,1.16567 -15.44503,1.16567 -10.49096,0 -10.49096,-10.49097 v -84.60767 h 12.72515 v 82.95632 l 28.65587,-0.77711 v -82.17921 h 12.72515 z"
       style="font-size:192px;font-family:'Agency FB';-inkscape-font-specification:'Agency FB';text-align:center;text-anchor:middle;fill:#ff7f2a;stroke-width:5.13014;stroke-linecap:round;stroke-miterlimit:1;stroke-dasharray:491.067, 717.714;stroke-dashoffset:623.278"
       id="path2249" />
    <path
       d="m 275.07727,202.70484 -23.41039,94.71008 h -11.75376 l -23.50754,-94.71008 h 13.30799 l 16.125,74.40812 16.31928,-74.40812 z"
       style="font-size:192px;font-family:'Agency FB';-inkscape-font-specification:'Agency FB';text-align:center;text-anchor:middle;fill:#ff7f2a;stroke-width:5.13014;stroke-linecap:round;stroke-miterlimit:1;stroke-dasharray:491.067, 717.714;stroke-dashoffset:623.278"
       id="path2251" />
    <path
       d="m 304.6074,182.01432 c -3.09094,3.09093 -10.02278,3.09093 -13.11371,0 -3.84648,-3.84649 -3.84648,-12.47279 0,-16.31928 3.09093,-3.09093 10.02277,-3.09093 13.11371,0 3.84649,3.84649 3.84649,12.47279 0,16.31928 z m -0.19428,115.20633 h -12.72515 v -94.51581 h 12.72515 z"
       style="font-size:192px;font-family:'Agency FB';-inkscape-font-specification:'Agency FB';text-align:center;text-anchor:middle;fill:#ff7f2a;stroke-width:5.13014;stroke-linecap:round;stroke-miterlimit:1;stroke-dasharray:491.067, 717.714;stroke-dashoffset:623.278"
       id="path2253"
       sodipodi:nodetypes="sssssccccc" />
    <path
       d="M 414.08256,297.22065 H 401.35741 V 145.19881 h 12.72515 z"
       style="font-size:192px;font-family:'Agency FB';-inkscape-font-specification:'Agency FB';text-align:center;text-anchor:middle;fill:#ff7f2a;stroke-width:5.13014;stroke-linecap:round;stroke-miterlimit:1;stroke-dasharray:491.067, 717.714;stroke-dashoffset:623.278"
       id="path2257" />
    <text
       xml:space="preserve"
       style="font-style:normal;font-variant:normal;font-weight:normal;font-stretch:normal;font-size:33.8209px;font-family:'Agency FB';-inkscape-font-specification:'Agency FB';text-align:center;text-anchor:middle;fill:#ff7f2a;stroke-width:0.872151;stroke-linecap:round;stroke-miterlimit:1;stroke-dasharray:83.4841, 122.016;stroke-dashoffset:105.96"
       x="248.27969"
       y="344.02588"
       id="text1004"><tspan
         sodipodi:role="line"
         id="tspan1002"
         x="248.27969"
         y="344.02588"
         style="font-style:normal;font-variant:normal;font-weight:normal;font-stretch:normal;font-family:'Berlin Sans FB';-inkscape-font-specification:'Berlin Sans FB';stroke-width:0.872151">ENGENHARIA</tspan></text>
    <path
       style="fill:#ff6600;stroke:#ff7f2a;stroke-width:1.99723;stroke-linecap:round;stroke-miterlimit:1;stroke-dasharray:none;stroke-dashoffset:601.534;stroke-opacity:1"
       d="M 137.26497,334.16275 H 82.202174"
       id="path1227" />
    <path
       style="fill:#ff6600;stroke:#ff7f2a;stroke-width:1.99723;stroke-linecap:round;stroke-miterlimit:1;stroke-dasharray:none;stroke-dashoffset:601.534;stroke-opacity:1"
       d="m 414.51728,334.16275 h -55.0628"
       id="path1227-8" />
    <path
       id="rect2318"
       style="fill:#ff7f2a;fill-opacity:1;stroke:none;stroke-width:1.98206;stroke-linecap:round;stroke-miterlimit:1;stroke-dasharray:none;stroke-dashoffset:601.534;stroke-opacity:1"
       d="m 315.54055,145.28491 v 151.93484 h 21.7044 c -7.25301,0 -10.87952,-3.6589 -10.87952,-10.97666 v -72.56251 c 0,-7.31776 3.62651,-10.97665 10.87952,-10.97665 h 31.08434 c 7.253,0 10.87952,3.65889 10.87952,10.97665 v 33.9985 l -4.37123,4.56552 h -35.94127 v 34.19277 h 27.78162 c 0,0 0.0534,-11.24943 0,-17.29067 -0.0695,-7.8611 12.27776,-7.68266 12.53088,0 0.21975,6.67012 0,17.09639 0,17.09639 0,7.31776 -3.62652,10.97666 -10.87952,10.97666 H 390.7096 V 145.28491 Z m 23.35576,68.2014 v 28.4616 h 27.78162 v -28.4616 z" />
  </g>
</svg>
